{
  "asset": {
    "generator": "glTF-Transform v4.2.1",
    "version": "2.0"
  },
  "accessors": [
    {
      "type": "VEC3",
      "componentType": 5126,
      "count": 422081,
      "max": [
        0.1488037109375,
        0.5,
        0.316131591796875
      ],
      "min": [
        -0.1443328857421875,
        -0.499969482421875,
        -0.320068359375
      ],
      "bufferView": 0,
      "byteOffset": 0
    },
    {
      "type": "VEC3",
      "componentType": 5126,
      "count": 422081,
      "bufferView": 0,
      "byteOffset": 12
    },
    {
      "type": "VEC2",
      "componentType": 5126,
      "count": 422081,
      "bufferView": 0,
      "byteOffset": 24
    },
    {
      "type": "SCALAR",
      "componentType": 5121,
      "count": 422081,
      "bufferView": 0,
      "byteOffset": 32
    },
    {
      "type": "SCALAR",
      "componentType": 5125,
      "count": 2408388,
      "bufferView": 1,
      "byteOffset": 0
    }
  ],
  "bufferViews": [
    {
      "buffer": 0,
      "byteOffset": 0,
      "byteLength": 15194916,
      "byteStride": 36,
      "target": 34962
    },
    {
      "buffer": 0,
      "byteOffset": 15194916,
      "byteLength": 9633552,
      "target": 34963
    }
  ],
  "samplers": [
    {
      "magFilter": 9729,
      "minFilter": 9987,
      "wrapS": 10497,
      "wrapT": 10497
    }
  ],
  "textures": [
    {
      "source": 1,
      "sampler": 0
    },
    {
      "source": 2,
      "sampler": 0
    },
    {
      "source": 0,
      "sampler": 0
    }
  ],
  "images": [
    {
      "mimeType": "image/jpeg",
      "uri": "metallicRoughness_1.jpg"
    },
    {
      "mimeType": "image/jpeg",
      "uri": "baseColor_1.jpg"
    },
    {
      "mimeType": "image/jpeg",
      "uri": "normal_1.jpg"
    }
  ],
  "buffers": [
    {
      "uri": "buffer.bin",
      "byteLength": 24828468
    }
  ],
  "materials": [
    {
      "name": "tripo_material_def03d96-ffc9-44e6-939a-5b0ab1046c3b",
      "pbrMetallicRoughness": {
        "baseColorTexture": {
          "index": 0
        },
        "metallicRoughnessTexture": {
          "index": 2
        }
      },
      "normalTexture": {
        "index": 1
      }
    }
  ],
  "meshes": [
    {
      "primitives": [
        {
          "attributes": {
            "POSITION": 0,
            "NORMAL": 1,
            "TEXCOORD_0": 2,
            "___UINT8ATTRIBUTE": 3
          },
          "mode": 4,
          "material": 0,
          "indices": 4
        }
      ]
    }
  ],
  "nodes": [
    {
      "name": "tripo_node_def03d96-ffc9-44e6-939a-5b0ab1046c3b",
      "extras": {
        "name": "tripo_node_def03d96-ffc9-44e6-939a-5b0ab1046c3b"
      },
      "mesh": 0
    },
    {
      "children": [
        0
      ]
    },
    {
      "name": "AuxScene_1",
      "extras": {
        "name": "AuxScene"
      },
      "children": [
        1
      ]
    },
    {
      "name": "AuxScene",
      "children": [
        2
      ]
    }
  ],
  "scenes": [
    {
      "name": "AuxScene",
      "nodes": [
        3
      ]
    }
  ],
  "scene": 0
}